# xmcd
#
# Track frame offsets: 
#        150
#        24694
#        44128
#        74704
#        91151
#        106669
#        123084
#        133903
#        150000
#        164180
#        180183
#        195692
#        217684
#        242025
#        263546
#        289537
#        305618
#        320000
#
# Disc length: 4563 seconds
#
# Revision: 2
# Processed by: cddbd v1.5.2PL0 Copyright (c) Steve Scherf et al.
# Submitted via: ExactAudioCopyFreeDBPlugin 1.0
#
DISCID=f811d112
DTITLE=Various Artist - Blues Ballads CD1
DYEAR=2006
DGENRE=Blues
TTITLE0=B.B. King - The Thrill Is Gone
TTITLE1=Robert Gray - Right Next Door (Because of Me)
TTITLE2=Stevie Ray Vaughan - Little Wing
TTITLE3=Paul Weller - You Do Something To Me
TTITLE4=Keb' Mo' - Just Like You
TTITLE5=Justin Hayward And John Lodge - Blue Guitar
TTITLE6=J.J. Cale - Don't Go To Strangers
TTITLE7=John Mayall's Bluesbreakers with Eric Clapton - All Your Love
TTITLE8=Sonny Boy Williamson - Help Me
TTITLE9=Sonny Terry And Brownie McGhee - Bring It On Home To Mea
TTITLE10=Buddy Guy - Leave My Girl Alone
TTITLE11=Robbie Robertson - Somewhere Down The Crazy River
TTITLE12=Bruce Willis - Blues For Mr. D
TTITLE13=Nawfel feat Ivan Neville - Why Can't We Live Together
TTITLE14=Free - Be My Friend
TTITLE15=Bobby Bland - Georgia On My Mind
TTITLE16=Little Milton - Blues Get Off My Shoulder
TTITLE17=Atlanta Rhythm Section - Spooky
EXTD=
EXTT0=
EXTT1=
EXTT2=
EXTT3=
EXTT4=
EXTT5=
EXTT6=
EXTT7=
EXTT8=
EXTT9=
EXTT10=
EXTT11=
EXTT12=
EXTT13=
EXTT14=
EXTT15=
EXTT16=
EXTT17=
PLAYORDER=
